<?xml version="1.0" encoding="utf-8"?>
<svg version="1.1" id="图层_1" xmlns="http://www.w3.org/2000/svg" xmlns:xlink="http://www.w3.org/1999/xlink" x="0px" y="0px"
	 width="100px" height="100px" viewBox="0 0 100 100" enable-background="new 0 0 100 100" xml:space="preserve">
<g id="XMLID_1_">
		<circle id="XMLID_9_" fill="none" stroke="#14A29A" stroke-miterlimit="10" stroke-dasharray="12.4322,12.4322" cx="50" cy="50" r="47.5"/>
			<animateTransform attributeName="transform"
				attributeType="XML"
				type="rotate"
				from="0 50 50"
				to="360 50 50"
				dur="5s"
				repeatCount="indefinite" />		
</g>
<circle id="XMLID_2_" fill="#1A9B93" cx="50" cy="50" r="38.5"/>
<path id="XMLID_3_" fill="#FFFFFF" d="M32.708,60.167L32.708,60.167c-1.238,0-2.25-1.013-2.25-2.25v-14.5
	c0-1.237,1.012-2.25,2.25-2.25h0c1.237,0,2.25,1.012,2.25,2.25v14.5C34.958,59.154,33.946,60.167,32.708,60.167z">
	<animateTransform id="sulin"
		attributeName="transform"
		attributeType="XML"
		type="translate"
		dur="1s"
		values="0,6;0,-6;0,6"
		repeatCount="indefinite"/>
</path>
<path id="XMLID_4_" fill="#FFFFFF" d="M41.292,60.167L41.292,60.167c-1.238,0-2.25-1.013-2.25-2.25v-14.5
	c0-1.237,1.012-2.25,2.25-2.25h0c1.237,0,2.25,1.012,2.25,2.25v14.5C43.542,59.154,42.529,60.167,41.292,60.167z">
	<animateTransform id="sulin"
		attributeName="transform"
		attributeType="XML"
		type="translate"
		begin=".1"
		dur="1s"
		values="0,6;0,-6;0,6"
		repeatCount="indefinite"/>
</path>
<path id="XMLID_5_" fill="#FFFFFF" d="M49.625,60.167L49.625,60.167c-1.238,0-2.25-1.013-2.25-2.25v-14.5
	c0-1.237,1.013-2.25,2.25-2.25h0c1.237,0,2.25,1.012,2.25,2.25v14.5C51.875,59.154,50.863,60.167,49.625,60.167z">
	<animateTransform id="sulin"
		attributeName="transform"
		attributeType="XML"
		type="translate"
		begin=".2"
		dur="1s"
		values="0,6;0,-6;0,6"
		repeatCount="indefinite"/>
</path>
<path id="XMLID_6_" fill="#FFFFFF" d="M58.458,60.167L58.458,60.167c-1.238,0-2.25-1.013-2.25-2.25v-14.5
	c0-1.237,1.013-2.25,2.25-2.25h0c1.237,0,2.25,1.012,2.25,2.25v14.5C60.708,59.154,59.696,60.167,58.458,60.167z">
	<animateTransform id="sulin"
		attributeName="transform"
		attributeType="XML"
		type="translate"
		begin=".3"
		dur="1s"
		values="0,6;0,-6;0,6"
		repeatCount="indefinite"/>
</path>
<path id="XMLID_7_" fill="#FFFFFF" d="M67.292,60.167L67.292,60.167c-1.238,0-2.25-1.013-2.25-2.25v-14.5
	c0-1.237,1.013-2.25,2.25-2.25h0c1.237,0,2.25,1.012,2.25,2.25v14.5C69.542,59.154,68.529,60.167,67.292,60.167z">
	<animateTransform id="sulin"
		attributeName="transform"
		attributeType="XML"
		type="translate"
		begin=".4"
		dur="1s"
		values="0,6;0,-6;0,6"
		repeatCount="indefinite"/>
</path>
</svg>
